<svg width="136" height="19" viewBox="0 0 136 19" fill="none" xmlns="http://www.w3.org/2000/svg">
<path fill-rule="evenodd" clip-rule="evenodd" d="M17.6539 0H0V18.3077H5.5577V13.7308H15.6923C16.4146 13.7308 17 14.3163 17 15.0385V18.3077H22.8847V14.4028C22.8847 12.7174 21.6174 11.3015 19.9424 11.1154C21.5673 11.1154 22.8847 9.79809 22.8847 8.17309V4.57693L17.6539 0ZM5.5577 9.15387V4.57693H16.0193C16.0193 4.57693 17.327 4.90386 17.327 6.8654C17.327 8.82694 16.0193 9.15387 16.0193 9.15387H5.5577Z" fill="white"/>
<path d="M19.9424 0L25.1731 4.57693H31.7116V18.3077H36.6155V4.57693H44.1347V0H19.9424Z" fill="white"/>
<path d="M47.4039 12.75L44.1347 9.48079L47.4039 6.21155L50.6732 9.48079L47.4039 12.75Z" fill="white"/>
<path d="M49.0386 6.21155H51.9809L55.2501 9.48079L51.9809 12.75H49.0386L52.3078 9.48079L49.0386 6.21155Z" fill="white"/>
<path d="M64.404 0H59.5001V18.3077H64.404V11.1154H76.1732V18.3077H81.404V0H76.1732V6.53848H64.404V0Z" fill="white"/>
<path d="M90.8848 0H85.654V13.077C85.654 15.9658 87.9959 18.3077 90.8848 18.3077H102C104.889 18.3077 107.231 15.9658 107.231 13.077V0H102V11.7723C102 12.8557 101.122 13.7308 100.039 13.7308H92.8464C91.763 13.7308 90.8848 12.8526 90.8848 11.7693V0Z" fill="white"/>
<path fill-rule="evenodd" clip-rule="evenodd" d="M111.154 0H128.965C129.294 0 129.622 0.0464692 129.919 0.190491C130.818 0.627789 132.731 1.89346 132.731 4.74645C132.731 8.4758 130.708 9.15387 130.708 9.15387L130.696 9.15684C130.787 9.16163 130.878 9.1733 130.966 9.19946C131.575 9.3794 133.385 10.2237 133.385 13.9003C133.385 18.3198 129.135 18.3077 129.135 18.3077H111.154V0ZM116.385 7.19232V3.92309H125.771C126.051 3.92309 126.334 3.95286 126.582 4.08221C126.992 4.29556 127.577 4.75207 127.577 5.61825C127.577 6.95016 126.193 7.19232 126.193 7.19232H116.385ZM116.385 11.1154H126.348C126.628 11.1154 126.911 11.1452 127.159 11.2745C127.569 11.4879 128.154 11.9444 128.154 12.8106C128.154 14.1425 126.77 14.3846 126.77 14.3846H116.385V11.1154Z" fill="white"/>
<path fill-rule="evenodd" clip-rule="evenodd" d="M133.84 2.31215V0.653848H134.494C134.619 0.653848 134.726 0.67625 134.814 0.721054C134.904 0.765319 134.971 0.828207 135.018 0.909719C135.065 0.99069 135.088 1.08597 135.088 1.19555C135.088 1.30567 135.064 1.40041 135.017 1.47976C134.969 1.55857 134.901 1.61903 134.81 1.66114C134.808 1.66241 134.805 1.66366 134.802 1.6649L134.795 1.66791L135.147 2.31215H134.76L134.446 1.7243H134.19V2.31215H133.84ZM134.428 1.44251H134.19V0.940488H134.427C134.494 0.940488 134.55 0.950474 134.594 0.970447C134.639 0.989881 134.672 1.01849 134.694 1.05628C134.716 1.09406 134.727 1.14049 134.727 1.19555C134.727 1.25007 134.716 1.29568 134.694 1.33239C134.672 1.3691 134.639 1.39663 134.595 1.41498C134.551 1.43334 134.495 1.44251 134.428 1.44251Z" fill="white"/>
<path fill-rule="evenodd" clip-rule="evenodd" d="M134.444 3.11344C135.303 3.11344 136 2.41647 136 1.55672C136 0.696967 135.303 0 134.444 0C133.584 0 132.887 0.696967 132.887 1.55672C132.887 2.41647 133.584 3.11344 134.444 3.11344ZM134.444 2.88459C135.177 2.88459 135.771 2.29008 135.771 1.55672C135.771 0.823355 135.177 0.228847 134.444 0.228847C133.71 0.228847 133.116 0.823355 133.116 1.55672C133.116 2.29008 133.71 2.88459 134.444 2.88459Z" fill="white"/>
</svg>
