<svg width="24" height="24" viewBox="0 0 24 24" fill="none" xmlns="http://www.w3.org/2000/svg">
<mask id="mask0_3134_35401" style="mask-type:luminance" maskUnits="userSpaceOnUse" x="0" y="0" width="24" height="24">
<path d="M24 0H0V23.9999H24V0Z" fill="white"/>
</mask>
<g mask="url(#mask0_3134_35401)">
<path d="M17.2498 10.5056C17.2553 10.6182 17.2574 10.7312 17.2574 10.8455C17.2574 14.3173 14.615 18.3199 9.78302 18.3199C8.29967 18.3199 6.91833 17.8851 5.75586 17.14C5.9616 17.1642 6.1703 17.1764 6.38239 17.1764C7.61344 17.1764 8.74628 16.7565 9.64502 16.0521C8.49567 16.0305 7.52581 15.2706 7.19138 14.2271C7.3514 14.2584 7.51608 14.2741 7.68541 14.2741C7.92502 14.2741 8.157 14.2428 8.37756 14.1822C7.17529 13.9409 6.26978 12.8784 6.26978 11.6067C6.26978 11.5952 6.26978 11.5842 6.27021 11.5728C6.62411 11.7697 7.02924 11.8878 7.4602 11.9017C6.75492 11.4297 6.29137 10.6267 6.29137 9.71479C6.29137 9.23346 6.42091 8.78177 6.64697 8.394C7.9428 9.98318 9.8787 11.0293 12.0623 11.1385C12.0174 10.9467 11.9941 10.7456 11.9941 10.5399C11.9941 9.08953 13.1701 7.91309 14.6213 7.91309C15.377 7.91309 16.0594 8.23228 16.5386 8.7424C17.1372 8.62513 17.6994 8.40585 18.207 8.10486C18.0101 8.71869 17.594 9.23346 17.0513 9.55816C17.5834 9.49466 18.0897 9.35326 18.5604 9.14456C18.2091 9.67245 17.7633 10.1352 17.2498 10.5056Z" fill="#030F2E"/>
</g>
</svg>
