<svg width="24" height="24" viewBox="0 0 24 24" fill="none" xmlns="http://www.w3.org/2000/svg">
<g clip-path="url(#clip0_3134_35389)">
<mask id="mask0_3134_35389" style="mask-type:luminance" maskUnits="userSpaceOnUse" x="0" y="0" width="24" height="24">
<path d="M24 0H0V24H24V0Z" fill="white"/>
</mask>
<g mask="url(#mask0_3134_35389)">
<path fill-rule="evenodd" clip-rule="evenodd" d="M7.49821 19.969C7.51992 20.563 8.00195 21.2754 8.00195 21.2754C8.00195 21.2754 8.39215 21.2754 8.94429 20.6066C9.49642 19.9379 9.54012 19.6985 9.54012 19.6985C9.70718 19.3202 9.84906 18.9425 9.93959 18.5943C10.0855 18.0329 10.6872 15.7417 10.6872 15.7417C11.0785 16.4879 12.2217 17.1196 13.4376 17.1196C17.057 17.1196 19.6646 13.7913 19.6646 9.6556C19.6646 5.6913 16.4295 2.7251 12.2667 2.7251C7.08814 2.7251 4.33789 6.20135 4.33789 9.9867C4.33789 11.7468 5.27487 13.9378 6.77365 14.6355C7.001 14.7413 7.12259 14.6947 7.17495 14.475C7.19219 14.4028 7.23991 14.2089 7.2959 13.9816C7.36917 13.684 7.4566 13.329 7.50828 13.1141C7.53743 12.993 7.523 12.8888 7.42503 12.7699C6.92923 12.1688 6.53197 11.0629 6.53197 10.0315C6.53197 7.38485 8.53615 4.82388 11.9506 4.82388C14.8984 4.82388 16.963 6.83275 16.963 9.7059C16.963 12.9521 15.3236 15.201 13.1907 15.201C12.0127 15.201 11.131 14.227 11.4137 13.0325C11.5361 12.5165 11.7 11.9858 11.8593 11.4698C12.1405 10.5592 12.4076 9.69435 12.4076 9.0371C12.4076 8.11544 11.9129 7.34674 10.8892 7.34674C9.68497 7.34674 8.71784 8.5924 8.71784 10.261C8.71784 11.3238 9.07686 12.0426 9.07686 12.0426C9.07686 12.0426 7.88773 17.0709 7.66976 18.0074C7.57535 18.4128 7.4765 19.3751 7.49821 19.969Z" fill="#030F2E"/>
</g>
</g>
<defs>
<clipPath id="clip0_3134_35389">
<rect width="24" height="24" fill="white"/>
</clipPath>
</defs>
</svg>
