<svg width="24" height="24" viewBox="0 0 24 24" fill="none" xmlns="http://www.w3.org/2000/svg">
<g clip-path="url(#clip0_2841_35072)">
<path d="M11.9988 2.18311C6.24146 2.18311 1.57422 6.85117 1.57422 12.6076C1.57422 18.3649 6.24146 23.0313 11.9988 23.0313C17.7561 23.0313 22.4225 18.3649 22.4225 12.6076C22.4225 6.85117 17.7557 2.18311 11.9988 2.18311ZM17.2498 10.5058C17.2553 10.6184 17.2574 10.7314 17.2574 10.8457C17.2574 14.3175 14.615 18.3201 9.78306 18.3201C8.29971 18.3201 6.91837 17.8853 5.7559 17.1402C5.96164 17.1644 6.17034 17.1766 6.38243 17.1766C7.61348 17.1766 8.74632 16.7567 9.64506 16.0523C8.49571 16.0307 7.52585 15.2708 7.19142 14.2273C7.35144 14.2586 7.51612 14.2743 7.68545 14.2743C7.92506 14.2743 8.15704 14.243 8.3776 14.1824C7.17533 13.9411 6.26982 12.8786 6.26982 11.6069C6.26982 11.5954 6.26982 11.5844 6.27025 11.573C6.62415 11.7699 7.02928 11.888 7.46024 11.9019C6.75496 11.4299 6.29141 10.6269 6.29141 9.71501C6.29141 9.23368 6.42095 8.78199 6.64701 8.39422C7.94284 9.9834 9.87874 11.0295 12.0623 11.1387C12.0174 10.9469 11.9941 10.7458 11.9941 10.5401C11.9941 9.08975 13.1701 7.91331 14.6213 7.91331C15.377 7.91331 16.0594 8.2325 16.5386 8.74262C17.1372 8.62535 17.6994 8.40607 18.207 8.10508C18.0101 8.71891 17.594 9.23368 17.0513 9.55838C17.5834 9.49488 18.0897 9.35348 18.5604 9.14478C18.2091 9.67267 17.7633 10.1354 17.2498 10.5058Z" fill="white"/>
</g>
<defs>
<clipPath id="clip0_2841_35072">
<rect width="24" height="23.9999" fill="white"/>
</clipPath>
</defs>
</svg>
