<svg width="24" height="24" viewBox="0 0 24 24" fill="none" xmlns="http://www.w3.org/2000/svg">
<g clip-path="url(#clip0_3134_35383)">
<mask id="mask0_3134_35383" style="mask-type:luminance" maskUnits="userSpaceOnUse" x="0" y="0" width="24" height="24">
<path d="M24 0H0V24H24V0Z" fill="white"/>
</mask>
<g mask="url(#mask0_3134_35383)">
<path fill-rule="evenodd" clip-rule="evenodd" d="M8.24829 18.7441V9.37275H5.13279V18.7441H8.24829ZM19.4805 18.7441V13.37C19.4805 10.4915 17.9436 9.15239 15.8941 9.15239C14.2415 9.15239 13.5013 10.0613 13.0868 10.6996V9.37275H9.97211C10.0134 10.252 9.97211 18.7441 9.97211 18.7441H13.0867V13.5105C13.0867 13.2303 13.1069 12.9503 13.1895 12.7501C13.4142 12.1906 13.9271 11.6111 14.7877 11.6111C15.9143 11.6111 16.3656 12.4708 16.3656 13.73V18.7441H19.4805ZM6.71158 4.854C5.64564 4.854 4.94922 5.55478 4.94922 6.47329C4.94922 7.37245 5.62446 8.09254 6.67033 8.09254H6.69044C7.77677 8.09254 8.45294 7.37245 8.45294 6.47329C8.43279 5.55478 7.77682 4.854 6.71158 4.854Z" fill="#030F2E"/>
</g>
</g>
<defs>
<clipPath id="clip0_3134_35383">
<rect width="24" height="24" fill="white"/>
</clipPath>
</defs>
</svg>
